<?xml version="1.0" encoding="UTF-8"?>
<!-- Generated by Pixelmator Pro 3.6.8 -->
<svg width="300" height="300" viewBox="0 0 300 300" xmlns="http://www.w3.org/2000/svg">
    <path id="Path-copy" fill="#ffffff" stroke="none" d="M 110.037895 261.432556 C 107.025696 262.018402 104.012672 262.604248 101.000473 263.190094 C 99.828781 263.775146 98.657089 264.361755 97.486221 264.946838 C 97.150986 264.528564 96.816582 264.110352 96.482124 263.692139 C 95.592438 261.473297 97.898186 254.867706 99.74498 254.152649 C 100.620628 249.857529 98.541992 243.927078 99.49437 238.337326 C 101.000473 225.702606 102.506569 213.064774 104.012672 200.430069 C 105.465538 201.400452 105.490593 203.558197 106.272255 205.199799 C 106.950485 206.31665 107.627975 207.433502 108.306244 208.549591 L 110.749855 214.244293 C 110.690331 217.90657 110.294792 222.814926 111.00753 226.622101 C 112.08992 232.406097 114.307968 236.461548 115.453003 241.265747 C 116.406937 245.273407 111.868263 260.179443 110.037895 261.432556 M 265.932343 249.633545 C 250.498428 247.133545 222.22226 255.347824 214.972107 244.361755 C 211.396774 238.945099 213.034454 230.966553 210.955032 223.776703 C 205.689529 205.569473 205.19455 186.324478 198.403351 170.054916 C 192.988251 157.08107 186.333359 143.6138 179.210052 130.697128 L 179.207703 130.690857 L 179.206146 130.690079 C 173.556076 120.446503 167.611526 110.548325 161.751556 101.521057 C 155.57756 92.009003 148.907745 82.800034 144.178711 71.647949 C 140.377838 62.681778 133.69783 50.680679 134.890671 39.012451 C 135.413834 33.897308 141.166519 37.210327 140.033188 26.227356 C 139.579742 21.830414 118.975876 3.04599 113.796516 2.953552 C 110.237617 2.890137 111.040436 4.485474 107.607597 3.651367 C 104.514717 2.898712 106.453941 1.248505 98.978233 0.774628 C 92.846497 3.646698 75.099792 11.340149 70.911171 15.592957 C 68.025841 18.521393 71.502502 20.882751 67.628769 23.999908 C 61.02396 29.314758 42.956131 32.007446 39.245308 38.76181 C 39.401932 45.552261 51.00988 65.495865 55.813278 66.87822 C 60.666836 66.626801 65.521149 66.375381 70.373901 66.124756 C 76.560455 66.97142 80.619827 68.74617 86.440651 69.639023 C 89.078468 74.238022 89.169334 84.962479 87.695313 91.228928 C 84.307175 105.63916 76.261269 114.599075 73.637543 130.139511 C 71.892555 140.473145 74.633766 152.793777 77.905228 159.259949 C 79.829582 162.272171 81.754707 165.285156 83.679039 168.297379 C 83.846657 174.990692 84.013474 181.68634 84.181084 188.380402 L 84.181084 230.554596 C 83.929672 235.49115 83.679039 240.429276 83.427628 245.365845 C 82.150223 253.277802 85.31517 263.217499 82.674965 269.967957 C 79.755165 277.431946 70.648033 272.947296 70.624535 285.531891 C 75.113098 289.660156 85.482765 290.876495 90.708336 286.285309 C 92.858246 284.39624 92.898949 280.189606 95.478073 278.753998 C 96.177452 278.237091 108.446442 277.503204 110.037895 278.001343 C 111.376404 279.005402 112.715691 280.00946 114.054192 281.01355 C 109.661957 284.996155 98.881912 285.914093 96.984177 292.059143 C 92.98513 305.006348 116.150864 298.576202 120.330811 297.582306 C 124.263313 297.832947 128.212234 296.713745 132.144745 296.965149 C 144.860107 294.873993 158.253738 294.704041 170.286987 292.310547 C 176.002808 291.173309 182.276306 291.4263 187.106354 289.297546 C 189.198288 287.708405 193.466812 281.818695 195.557968 280.22876 C 201.862762 275.626648 227.624832 270.946991 227.722717 270.946198 C 229.517838 270.926605 234.914169 266.500702 265.901001 264.931152 C 270.348053 264.595947 274.842102 264.81134 277.7995 264.800354 C 282.689056 264.782349 298.308594 266.709045 300.073944 263.440704 C 293.886627 257.145294 276.607483 251.362854 265.932343 249.633545"/>
    <path id="Path-copy-2" fill="#ffffff" stroke="none" d="M 22.567429 168.639877 C 22.179739 168.445648 21.623678 167.353073 21.658119 166.598053 C 21.756807 165.115448 21.858641 163.49733 21.957306 162.015503 C 22.847042 163.991547 23.735975 165.969131 24.625711 167.94519 C 23.940397 168.639877 23.168165 168.93985 22.567429 168.639877 M 25.218603 161.718674 C 26.135736 160.792145 26.290802 160.644119 26.409063 159.703491 C 26.449011 159.386292 26.33387 159.232758 26.127888 158.545883 C 25.733156 158.117493 25.433189 157.91777 24.969528 157.743896 C 24.642944 157.620926 24.390749 157.671066 24.017151 157.696899 C 24.354725 153.896774 26.665962 152.495605 25.811493 148.079117 C 25.690088 147.722748 25.432409 147.035873 24.969528 146.937958 C 24.438522 146.825958 23.33498 147.123596 22.473442 147.440018 C 22.272165 147.487 22.148418 147.580215 21.947142 147.627197 L 22.853306 150.066879 C 23.150932 149.964294 23.490046 149.897705 23.772779 149.756729 C 23.631804 151.231506 23.232367 152.236359 22.555679 152.784622 C 22.302706 152.989029 22.005882 153.185623 21.660482 153.416656 C 21.237549 153.643021 20.746469 153.797302 20.285172 153.848999 C 19.856756 153.896774 19.294407 153.797302 18.818216 153.668854 C 18.399208 153.501266 18.277803 153.44252 17.98176 153.2052 C 17.783602 153.046982 17.68099 152.880173 17.509472 152.526947 C 17.410784 152.230103 17.312117 151.934052 17.213428 151.637207 C 17.430378 151.576904 17.648109 151.516602 17.865059 151.456314 L 17.211868 148.731522 C 16.026089 149.008774 14.840308 149.285248 13.655309 149.561722 C 13.928658 153.2052 15.570251 156.106979 18.992098 156.677933 C 20.173174 162.645981 15.034542 171.363892 23.746944 171.505646 C 23.994434 171.462555 24.599072 171.187668 24.728302 171.115601 C 27.05443 169.832703 26.467024 170.293228 28.110201 168.364975 C 27.121798 166.191574 26.207005 163.892868 25.218603 161.718674"/>
    <path id="Path-copy-4" fill="#af243f" stroke="none" d="M 61.913994 211.74295 C 54.055305 215.801529 48.866535 210.085678 46.525539 204.97995 C 40.933434 192.783829 41.256897 181.023956 45.294327 167.907578 C 52.363575 173.646927 66.547455 199.759872 61.913994 211.74295 M 50.526165 157.136917 C 49.051384 149.9776 59.762527 133.846649 62.529598 128.079895 C 64.581619 122.319382 66.633621 116.557327 68.684837 110.796844 C 73.729485 97.592743 78.568924 84.597733 77.278976 67.58725 C 76.297615 67.321732 75.226974 67.147095 74.174347 66.948929 C 72.871872 66.704559 71.590546 66.475861 70.300591 66.324722 C 69.991219 66.288681 69.648178 66.356827 69.336464 66.324722 C 74.294952 82.388306 67.514725 94.691727 63.145206 106.037292 C 60.523815 112.844131 58.220402 119.730881 55.758781 126.576904 C 48.766285 141.15007 40.354633 156.063919 35.445503 172.165878 C 30.291977 189.067505 34.642704 213.445648 52.680775 216.251892 C 67.669014 218.583496 73.322998 204.111374 69.916046 192.705521 C 65.837868 179.051056 53.496075 171.551056 50.526165 157.136917"/>
    <path id="Path-copy-3" fill="#af243f" stroke="none" d="M 51.433109 53.367645 C 52.308735 53.164795 52.969772 53.25563 53.790581 53.25563 C 54.313763 53.384079 54.581608 53.769424 54.901951 53.950348 C 55.740768 54.739822 55.68671 56.068909 55.081291 57.560928 C 53.739666 58.63707 52.880493 59.006744 51.683743 59.664642 C 49.379551 60.932632 47.138783 62.174042 44.782112 64.217422 C 43.338654 65.468216 42.68232 66.7229 41.55138 68.084122 C 29.567518 82.504547 26.52317 100.097748 24.075661 122.716782 C 23.800751 125.255173 23.45145 131.461304 23.341795 137.349457 C 23.194553 145.230103 24.034153 150.731369 22.264891 151.691574 C 21.466799 152.168533 20.698467 152.781021 19.132044 152.670593 C 18.236845 152.529602 18.236845 152.529602 17.621241 152.013474 C 15.338984 147.809982 15.443913 125.1698 16.453472 120.337418 C 16.966488 115.693771 17.80999 111.112 18.789007 106.41275 C 24.355253 85.036652 30.122801 61.564697 51.433109 53.367645"/>
</svg>
