<?xml version="1.0" encoding="UTF-8"?>
<!-- Generated by Pixelmator Pro 3.6.8 -->
<svg width="1596" height="1596" viewBox="0 0 1596 1596" xmlns="http://www.w3.org/2000/svg">
    <path id="Path-copy" fill="#1a1919" stroke="none" d="M 585.401611 1390.821289 C 569.376709 1393.937988 553.347412 1397.054565 537.32251 1400.171265 C 531.089111 1403.283691 524.855713 1406.404541 518.626709 1409.51709 C 516.843262 1407.291992 515.064209 1405.067139 513.284912 1402.842041 C 508.551758 1391.037842 520.818359 1355.89624 530.643311 1352.092041 C 535.301758 1329.242065 524.243408 1297.692139 529.310059 1267.95459 C 537.32251 1200.737915 545.334961 1133.504639 553.347412 1066.287964 C 561.07666 1071.450439 561.209961 1082.929565 565.368408 1091.662842 C 568.976563 1097.604492 572.580811 1103.546265 576.189209 1109.483765 L 589.189209 1139.779541 C 588.872559 1159.262939 586.768311 1185.375488 590.560059 1205.629639 C 596.318359 1236.400391 608.118408 1257.975342 614.209961 1283.533691 C 619.284912 1304.854492 595.13916 1384.154541 585.401611 1390.821289 M 1414.76001 1328.050415 C 1332.651611 1314.750488 1182.222412 1358.450439 1143.651611 1300.004639 C 1124.630859 1271.187988 1133.343262 1228.742065 1122.280762 1190.492065 C 1094.268311 1093.629639 1091.63501 991.246216 1055.505859 904.692139 C 1026.69751 835.671265 991.293457 764.025391 953.397461 695.308716 L 953.38501 695.275391 L 953.376709 695.27124 C 923.318359 640.775391 891.693359 588.117065 860.518311 540.092041 C 827.672607 489.487915 792.189209 440.496216 767.030762 381.167114 C 746.810059 333.467041 711.272461 269.621216 717.618408 207.546265 C 720.401611 180.33374 751.005859 197.958862 744.976563 139.529541 C 742.564209 116.137817 632.95166 16.20459 605.397461 15.712891 C 586.464111 15.375488 590.735107 23.862793 572.472412 19.425293 C 556.018311 15.421143 566.334961 6.64209 526.564209 4.121094 C 493.943359 19.400391 399.530884 60.32959 377.247437 82.95459 C 361.897461 98.533813 380.393311 111.096191 359.785034 127.679565 C 324.647461 155.95459 228.526611 170.279663 208.785034 206.212891 C 209.618286 242.338013 271.372559 348.437988 296.926636 355.792114 C 322.747559 354.45459 348.57251 353.117065 374.38916 351.783691 C 407.301636 356.287964 428.897461 365.729614 459.864258 370.479614 C 473.897461 394.946289 474.380859 452.000366 466.539063 485.337891 C 448.51416 562.000366 405.709961 609.667114 391.751709 692.342163 C 382.468384 747.317139 397.051636 812.862915 414.455811 847.262939 C 424.693359 863.287964 434.935059 879.317017 445.172485 895.342041 C 446.064209 930.950439 446.95166 966.571289 447.843384 1002.183716 L 447.843384 1226.550415 C 446.505859 1252.812988 445.172485 1279.08374 443.834961 1305.346191 C 437.039185 1347.437988 453.876709 1400.317139 439.830811 1436.229492 C 424.297485 1475.937988 375.847534 1452.07959 375.722534 1519.029541 C 399.601685 1540.992065 454.768311 1547.462891 482.568359 1523.037842 C 494.005859 1512.987915 494.222412 1490.608765 507.943359 1482.971191 C 511.664063 1480.221191 576.935059 1476.317139 585.401611 1478.967041 C 592.522461 1484.308838 599.647461 1489.650391 606.768311 1494.992065 C 583.401611 1516.179565 526.051758 1521.062988 515.955811 1553.754639 C 494.680908 1622.633789 617.922607 1588.425415 640.159912 1583.137939 C 661.080811 1584.471191 682.089111 1578.51709 703.01001 1579.854492 C 770.655762 1568.729614 841.909912 1567.825439 905.926758 1555.092041 C 936.334961 1549.041992 969.709961 1550.387939 995.405762 1539.062988 C 1006.534912 1530.608765 1029.243408 1499.275391 1040.368408 1490.817139 C 1073.909912 1466.33374 1210.964111 1441.437988 1211.484863 1441.433838 C 1221.034912 1441.32959 1249.743408 1417.783691 1414.593262 1409.433838 C 1438.251709 1407.650391 1462.159912 1408.796265 1477.893311 1408.737915 C 1503.905762 1408.64209 1587.001709 1418.89209 1596.393311 1401.504639 C 1563.476807 1368.012939 1471.551758 1337.250488 1414.76001 1328.050415"/>
    <path id="Path-copy-2" fill="#1a1919" stroke="none" d="M 120.058716 897.164185 C 117.996216 896.130859 115.037964 890.318359 115.221191 886.301636 C 115.746216 878.414185 116.287964 869.805786 116.812866 861.922485 C 121.546265 872.435059 126.275391 882.955811 131.008789 893.468384 C 127.362915 897.164185 123.254639 898.76001 120.058716 897.164185 M 134.162964 860.343384 C 139.042114 855.414185 139.867065 854.626709 140.496216 849.622559 C 140.70874 847.935059 140.096191 847.118286 139.000366 843.464111 C 136.900391 841.185059 135.304565 840.122559 132.837891 839.19751 C 131.100464 838.543335 129.758789 838.810059 127.77124 838.94751 C 129.567139 818.730835 141.862915 811.276611 137.317139 787.780884 C 136.671265 785.88501 135.300415 782.230835 132.837891 781.709961 C 130.012939 781.114136 124.14209 782.69751 119.558716 784.380859 C 118.487915 784.630859 117.82959 785.126709 116.758789 785.376709 L 121.57959 798.355835 C 123.162964 797.810059 124.967041 797.455811 126.471191 796.705811 C 125.721191 804.551636 123.596191 809.897461 119.996216 812.814209 C 118.650391 813.901611 117.071289 814.94751 115.233765 816.176636 C 112.983765 817.380859 110.371216 818.20166 107.917114 818.476685 C 105.637939 818.730835 102.64624 818.20166 100.112915 817.518311 C 97.883789 816.626709 97.237915 816.314209 95.662964 815.051636 C 94.608765 814.209961 94.062866 813.32251 93.150391 811.443359 C 92.625366 809.864136 92.100464 808.289185 91.575439 806.709961 C 92.729614 806.38916 93.887939 806.068359 95.042114 805.747559 L 91.567139 791.251709 C 85.258789 792.726685 78.950439 794.19751 72.64624 795.668335 C 74.100464 815.051636 82.83374 830.489136 101.037964 833.526611 C 107.321289 865.276611 79.983765 911.655884 126.33374 912.410034 C 127.650391 912.180786 130.867065 910.718384 131.554565 910.334961 C 143.929565 903.51001 140.804565 905.959961 149.546265 895.70166 C 144.287964 884.13916 139.421265 871.910034 134.162964 860.343384"/>
    <path id="Path-copy-4" fill="#af243f" stroke="none" d="M 329.382446 1126.472412 C 287.574219 1148.064209 259.969971 1117.655762 247.515869 1090.493408 C 217.765869 1025.609985 219.486694 963.047485 240.96582 893.268311 C 278.574219 923.801636 354.032471 1062.722534 329.382446 1126.472412 M 268.799194 835.968384 C 260.953369 797.880859 317.936646 712.064209 332.657471 681.38501 C 343.574219 650.739136 354.490845 620.084961 365.40332 589.439209 C 392.240845 519.193359 417.986694 450.059937 411.124146 359.564209 C 405.90332 358.151611 400.20752 357.222534 394.607544 356.168335 C 387.678345 354.868286 380.861694 353.651611 373.999146 352.847534 C 372.353271 352.655762 370.52832 353.018311 368.869995 352.847534 C 395.249146 438.305786 359.178345 503.76001 335.932495 564.118408 C 321.986694 600.330811 309.732544 636.968262 296.636719 673.38916 C 259.436646 750.918335 214.686646 830.26001 188.570068 915.922485 C 161.15332 1005.839111 184.299194 1135.530762 280.261719 1150.459961 C 359.999146 1162.864258 390.078369 1085.872559 371.953369 1025.193359 C 350.257446 952.551636 284.599121 912.651611 268.799194 835.968384"/>
    <path id="Path-copy-3" fill="#af243f" stroke="none" d="M 273.624146 283.915894 C 278.282471 282.83667 281.799194 283.319946 286.165894 283.319946 C 288.949219 284.003296 290.374146 286.053345 292.078369 287.015869 C 296.540894 291.21582 296.253296 298.286621 293.032471 306.224121 C 285.89502 311.949219 281.324219 313.915894 274.95752 317.415894 C 262.699219 324.161621 250.77832 330.765869 238.240845 341.636719 C 230.561646 348.290894 227.069946 354.96582 221.053345 362.20752 C 157.299194 438.924194 141.103271 532.52002 128.08252 652.853271 C 126.619995 666.357544 124.761719 699.374146 124.178345 730.699097 C 123.39502 772.624146 127.861694 801.890869 118.449219 806.999146 C 114.203369 809.536621 110.115845 812.795044 101.782471 812.20752 C 97.02002 811.45752 97.02002 811.45752 93.744995 808.71167 C 81.603394 786.349121 82.161621 665.90332 87.532471 640.195068 C 90.261719 615.490845 94.749146 591.115845 99.95752 566.115845 C 129.569946 452.39502 160.253296 327.52417 273.624146 283.915894"/>
</svg>
