<?xml version="1.0" encoding="UTF-8"?>
<!-- Generated by Pixelmator Pro 3.6.8 -->
<svg width="30" height="30" viewBox="0 0 30 30" xmlns="http://www.w3.org/2000/svg">
    <path id="Path-copy-9" fill="#000000" stroke="none" d="M 29.982759 15.017241 C 29.982759 23.301455 23.266972 30.017241 14.982759 30.017241 C 6.698545 30.017241 -0.017241 23.301455 -0.017241 15.017241 C -0.017241 6.733028 6.698545 0.017241 14.982759 0.017241 C 23.266972 0.017241 29.982759 6.733028 29.982759 15.017241"/>
    <path id="Path-copy-8" fill="#ee1e52" stroke="none" d="M 18.250673 6.810345 L 18.874462 6.810345 C 18.973734 7.55994 19.159348 8.22966 19.449354 8.802128 C 18.881735 8.294451 18.493401 7.620285 18.250673 6.810345"/>
    <path id="Path-copy-7" fill="#ee1e52" stroke="none" d="M 10.137931 16.603447 C 9.688578 18.116514 10.081088 19.16029 10.92861 19.722118 C 10.760372 19.190733 10.765894 18.529633 11 17.741379 C 11.620689 16.534483 12.793103 16.224138 14.068966 16.396553 L 14 13.327587 C 13.722117 13.308998 13.442349 13.305901 13.163389 13.318966 L 13.206897 15.25862 C 11.931034 15.086206 10.75862 15.396552 10.137931 16.603447"/>
    <path id="Path-copy-6" fill="#ee1e52" stroke="none" d="M 22.206896 10.860722 L 22.206896 13.133081 C 20.325161 13.029364 18.964439 12.518993 18.034483 11.672413 L 18.034483 18.672413 C 17.551723 21.637932 15.586206 23.224138 12.137931 23.224138 C 10.551724 23.112068 9.33001 22.687231 8.466595 21.886852 C 9.276939 23.436962 10.781789 24.205145 13 24.362068 C 16.448277 24.362068 18.413794 22.775862 18.896551 19.810345 L 18.896551 12.810345 C 19.826509 13.656923 21.187231 14.167295 23.068966 14.271013 L 23.068966 10.982759 C 22.762392 10.959995 22.475485 10.918911 22.206896 10.860722"/>
    <path id="Path-copy-5" fill="#ffffff" stroke="none" d="M 18.034483 18.672413 L 18.034483 11.672413 C 18.964439 12.518993 20.325161 13.029364 22.206896 13.133081 L 22.206896 10.860722 C 20.862473 10.570313 19.981007 9.849272 19.449354 8.802128 C 18.881735 8.294451 18.493401 7.620285 18.250673 6.810345 L 15.793103 6.810345 L 15.724138 19.327587 C 15.620689 20.775862 14.482759 21.362068 13.206897 21.327587 C 12.096579 21.217941 11.231008 20.679283 10.92861 19.722118 C 10.081088 19.16029 9.688578 18.116514 10.137931 16.603447 C 10.75862 15.396552 11.931034 15.086206 13.206897 15.25862 L 13.163389 13.318966 C 10.413389 13.442753 7.758621 15.103045 7.758621 18.672413 C 7.794855 19.988686 8.030038 21.051319 8.466595 21.886852 C 9.33001 22.687231 10.551724 23.112068 12.137931 23.224138 C 15.586206 23.224138 17.551723 21.637932 18.034483 18.672413"/>
    <path id="Path-copy-4" fill="none" stroke="#0000ff" stroke-width="0.034483" d="M 18.034483 18.672413 L 18.034483 11.672413 C 18.964439 12.518993 20.325161 13.029364 22.206896 13.133081 L 22.206896 10.860722 C 20.862473 10.570313 19.981007 9.849272 19.449354 8.802128 C 18.881735 8.294451 18.493401 7.620285 18.250673 6.810345 L 15.793103 6.810345 L 15.724138 19.327587 C 15.620689 20.775862 14.482759 21.362068 13.206897 21.327587 C 12.096579 21.217941 11.231008 20.679283 10.92861 19.722118 C 10.081088 19.16029 9.688578 18.116514 10.137931 16.603447 C 10.75862 15.396552 11.931034 15.086206 13.206897 15.25862 L 13.163389 13.318966 C 10.413389 13.442753 7.758621 15.103045 7.758621 18.672413 C 7.794855 19.988686 8.030038 21.051319 8.466595 21.886852 C 9.33001 22.687231 10.551724 23.112068 12.137931 23.224138 C 15.586206 23.224138 17.551723 21.637932 18.034483 18.672413 Z M 18.034483 18.672413"/>
    <path id="Path-copy-3" fill="#68c9d0" stroke="none" d="M 13.163389 13.318966 L 13.137931 12.189655 C 10.116514 11.987877 6.896552 13.603449 6.896552 17.534483 C 6.952047 19.546606 7.471714 20.965921 8.466595 21.886852 C 8.030038 21.051319 7.794855 19.988686 7.758621 18.672413 C 7.758621 15.103045 10.413389 13.442753 13.163389 13.318966"/>
    <path id="Path-copy-2" fill="#68c9d0" stroke="none" d="M 13.206897 21.327587 C 14.482759 21.362068 15.620689 20.775862 15.724138 19.327587 L 15.793103 6.810345 L 18.250673 6.810345 C 18.144127 6.456223 18.065868 6.075834 18.012392 5.672413 L 14.931034 5.672413 L 14.862069 18.189655 C 14.75862 19.637932 13.620689 20.224138 12.344828 20.189655 C 11.801724 20.13591 11.317214 19.97966 10.92861 19.722118 C 11.231008 20.679283 12.096579 21.217941 13.206897 21.327587"/>
    <path id="Path-copy" fill="#68c9d0" stroke="none" d="M 22.206896 9.844828 L 22.206896 10.860722 C 20.862473 10.570313 19.981007 9.849272 19.449354 8.802128 C 20.108971 9.391434 21.009968 9.755522 22.206896 9.844828"/>
</svg>
